<?xml version="1.0" encoding="utf-8"?>
<!-- Generator: Adobe Illustrator 24.3.0, SVG Export Plug-In . SVG Version: 6.00 Build 0)  -->
<svg version="1.1" id="Capa_1" xmlns="http://www.w3.org/2000/svg" xmlns:xlink="http://www.w3.org/1999/xlink" x="0px" y="0px"
	 viewBox="0 0 55 55" style="enable-background:new 0 0 55 55;" xml:space="preserve">
<style type="text/css">
	.st0{fill-rule:evenodd;clip-rule:evenodd;fill:#002138;}
</style>
<path class="st0" d="M37.3,1.5v4h-4.1l-0.3,1.7L27,41.5h-1.7v-24h-4v-8h-4v-4h-4v4h-4v8h-4v24h-4v12h37.5c0.2,0,0.4,0,0.6,0h14
	l-8.1-48h-4.2v-4H37.3z M37,9.5h4.5l-2.3,22.3L37,9.5z M13.4,13.5h4v4h-4V13.5z M9.4,21.5h11.9v20H9.4V21.5z M44.2,22.3l4.6,27.2
	h-7.4L44.2,22.3z M34.3,22.3L37,49.5h-7.4L34.3,22.3z M5.4,45.5h19.9v4H5.4V45.5z"/>
</svg>
