<?xml version="1.0" encoding="utf-8"?>
<!-- Generator: Adobe Illustrator 24.3.0, SVG Export Plug-In . SVG Version: 6.00 Build 0)  -->
<svg version="1.1" id="Capa_1" xmlns="http://www.w3.org/2000/svg" xmlns:xlink="http://www.w3.org/1999/xlink" x="0px" y="0px"
	 viewBox="0 0 696 72.2" style="enable-background:new 0 0 696 72.2;" xml:space="preserve">
<style type="text/css">
	.st0{fill:#FFFFFF;}
</style>
<g>
	<path class="st0" d="M255.3,35.2c0-3.5,0-6.9,0-10.4c45.5,0,91,0,136.6,0c0,3.5,0,6.9,0,10.4C346.4,35.2,300.9,35.2,255.3,35.2z"/>
	<path class="st0" d="M20.8,48c1.4-3.2,2.8-6.3,4.1-9.4c1.9-4.3,3.7-8.6,5.6-13c0.3-0.7,0.7-0.9,1.4-0.9c1.8,0,3.6,0.1,5.4,0
		c0.9,0,1.3,0.2,1.7,1.1c3,7.2,6.1,14.3,9.1,21.5c0.1,0.2,0.2,0.4,0.4,0.7c0.5-1.2,1-2.2,1.4-3.2c2.7-6.4,5.4-12.8,8.1-19.2
		c0.2-0.4,0.7-0.8,1-0.8c3.4-0.1,6.8,0,10.4,0c-0.9,2.1-1.7,4.1-2.5,6.1c-4.6,11-9.3,22-13.9,33.1c-0.4,1-0.9,1.3-1.9,1.3
		c-1.7-0.1-3.4-0.1-5.2,0c-0.9,0-1.2-0.3-1.6-1.1C41.2,57,38.1,49.9,35,42.7c-0.1-0.2-0.2-0.4-0.3-0.7c-1.2,2.8-2.4,5.4-3.5,8.1
		c-2.1,4.8-4.2,9.6-6.2,14.4c-0.3,0.6-0.6,0.8-1.3,0.8c-1.9,0-3.8-0.1-5.8,0c-0.8,0-1.1-0.3-1.4-1C11.5,52,6.3,39.8,1.2,27.6
		c-0.4-0.9-0.8-1.8-1.2-2.9c3.6,0,7.1,0,10.5,0c0.3,0,0.8,0.5,0.9,0.9c3,7.1,5.9,14.1,8.8,21.2C20.4,47.2,20.6,47.5,20.8,48z"/>
	<path class="st0" d="M423.6,62.1c0,1.2,0,2.1,0,3.1c-3.5,0-6.9,0-10.4,0c0-19.7,0-39.3,0-59c3.6,0,7.2,0,10.9,0c0,7,0,14.1,0,21.3
		c1.3-0.7,2.3-1.4,3.5-1.9c11.1-4.7,23.6,1.3,26.8,12.9c2.1,7.7,0.9,14.9-4.4,21.1c-3.7,4.3-8.6,6.3-14.3,6.6
		C431.2,66.2,427.3,65,423.6,62.1z M424.1,44.9c0,1.8,0,3.5,0,5.3c0,0.5,0.2,1.2,0.6,1.6c1,0.9,2,1.9,3.1,2.6
		c5.1,3,11.5,1.7,14.6-2.9c3.3-4.8,2.3-11.8-2.2-15.4c-4.2-3.3-11.3-2.5-15.2,1.8c-0.6,0.7-0.9,1.4-0.9,2.3
		C424.2,41.7,424.1,43.3,424.1,44.9z"/>
	<path class="st0" d="M195.4,6.1c3.7,0,7.3,0,11,0c0,10.4,0,20.8,0,31.5c2.1-2,4-3.8,5.9-5.6c2.4-2.2,4.7-4.5,7.1-6.7
		c0.3-0.3,0.8-0.6,1.2-0.6c4.8,0,9.7,0,14.9,0c-6.7,6.2-13.2,12.2-19.7,18.2c7.4,7.4,14.7,14.6,22.2,22.2c-0.8,0-1.2,0.1-1.6,0.1
		c-4,0-8.1,0-12.1,0c-0.6,0-1.4-0.3-1.8-0.8c-5-5-10-10.1-14.9-15.2c-0.3-0.3-0.5-0.7-0.8-1.1c-0.1,0.1-0.2,0.1-0.4,0.2
		c0,5.6,0,11.1,0,16.8c-3.7,0-7.3,0-11,0C195.4,45.4,195.4,25.8,195.4,6.1z"/>
	<path class="st0" d="M656,65.1c0-19.7,0-39.3,0-59c3.6,0,7.2,0,10.9,0c0,7.1,0,14.1,0,21.3c1.3-0.7,2.5-1.4,3.7-1.9
		c10.3-4.7,24.1,1.3,25.3,14.7c0.2,2.6,0.2,5.3,0.3,7.9c0,5.6,0,11.3,0,17c-3.6,0-7.2,0-10.9,0c0-0.5,0-0.9,0-1.4
		c0-6.6,0-13.3,0-19.9c0-1.1-0.1-2.2-0.3-3.3c-0.8-4.8-4.9-6.7-8.9-6.4c-3,0.2-5.6,1.6-7.8,3.6c-0.9,0.8-1.3,1.7-1.3,2.9
		c0.1,7.7,0,15.4,0,23c0,0.5,0,1,0,1.5C663.2,65.1,659.6,65.1,656,65.1z"/>
	<path class="st0" d="M127.2,45c0,11.9-9.3,21-21.6,21c-11.9,0-21.5-8.9-21.4-21c0-12.4,9.9-21.2,21.8-21.1
		C117.9,23.9,127.2,33.2,127.2,45z M95.2,45c0,6.3,4.5,11,10.5,11c6.1,0,10.6-4.7,10.6-11.1c0-6.1-4.7-10.8-10.6-10.8
		C99.7,34,95.2,38.7,95.2,45z"/>
	<path class="st0" d="M484.9,47.8c0.6,4.1,2.7,7,6.4,8.5c5.7,2.3,10.4,0.2,14.5-3.6c2.1,2.1,4.1,4.1,6.2,6.2
		c-1.3,1.8-3.1,3.2-5.2,4.3c-8.3,4.3-16.6,4.2-24.4-1.1c-5.3-3.6-7.6-9-8-15.2c-0.4-6.1,1.2-11.7,5.2-16.5
		c6.5-7.7,19.2-8.6,26.6-1.9c5.4,4.9,7.4,11.1,6.9,18.2c-0.1,1-0.4,1.2-1.3,1.2c-8.4,0-16.9,0-25.3,0
		C485.9,47.8,485.5,47.8,484.9,47.8z M485.5,39.6c5.5,0,10.9,0,16.3,0c-0.6-4.2-4.1-7-8.4-6.9C489.4,32.9,485.8,36.3,485.5,39.6z"/>
	<path class="st0" d="M545.4,65.1c-3.7,0-7.2,0-10.9,0c0-13.4,0-26.8,0-40.3c3.4,0,6.9,0,10.5,0c0,0.9,0,1.8,0,2.6
		c2.4-1,4.6-2.3,7-2.9c10.8-2.8,21.2,4.5,22.3,15.6c0.2,1.7,0.2,3.5,0.2,5.3c0,6.6,0,13.1,0,19.8c-3.6,0-7.2,0-10.9,0
		c0-0.5,0-1,0-1.4c0-6.8,0-13.5,0-20.3c0-2.4-0.3-4.8-2-6.7c-2.3-2.5-5.1-3-8.3-2.5c-2.6,0.4-4.8,1.8-6.8,3.6
		c-0.8,0.7-1.1,1.5-1.1,2.6c0.1,7.7,0,15.4,0,23C545.4,63.9,545.4,64.4,545.4,65.1z"/>
	<path class="st0" d="M634.1,32c-2.6,2.3-5.2,4.5-7.7,6.8c-6.1-7.1-13.8-5.3-17.4-1.2c-3.9,4.4-3.6,11.9,0.8,15.7
		c4.2,3.6,11.9,4.4,17.2-2.6c2.8,2.1,5.5,4.1,8.4,6.3c-1.5,2.1-3.3,3.9-5.4,5.4c-8.4,6-23.8,5.5-31.2-5.5
		c-8.5-12.6-0.9-30.1,14.1-32.5c7.2-1.1,13.5,0.5,19,5.3c0.4,0.3,0.7,0.6,1,1C633.3,31,633.6,31.5,634.1,32z"/>
	<path class="st0" d="M159.6,65.1c-3.6,0-7.2,0-10.8,0c0-13.4,0-26.8,0-40.3c3.4,0,6.9,0,10.4,0c0,1.1,0,2.3,0,3.7
		c4.5-4.2,9.6-5.2,15.4-4.3c-0.4,3.4-0.8,6.7-1.2,9.8c-1.8,0-3.5-0.1-5.1,0c-3.5,0.4-6.1,2.2-8.1,4.9c-0.4,0.5-0.5,1.2-0.5,1.9
		c0,7.6,0,15.2,0,22.8C159.6,64.2,159.6,64.6,159.6,65.1z"/>
</g>
</svg>
