<?xml version="1.0" encoding="utf-8"?>
<!-- Generator: Adobe Illustrator 24.3.0, SVG Export Plug-In . SVG Version: 6.00 Build 0)  -->
<svg version="1.1" id="Capa_1" xmlns="http://www.w3.org/2000/svg" xmlns:xlink="http://www.w3.org/1999/xlink" x="0px" y="0px"
	 viewBox="0 0 113 113" style="enable-background:new 0 0 113 113;" xml:space="preserve">
<path d="M82.5,40.3c-0.5-2.6-2.6-4.6-5.2-5.2C73.2,34.4,66,33.4,56,33.4s-17.2,1-21.3,1.8c-2.6,0.5-4.7,2.5-5.2,5.2
	c-0.8,3.5-1.7,9.1-1.7,15.7s0.9,12.1,1.7,15.7c0.5,2.6,2.6,4.6,5.2,5.2c4.1,0.8,11.2,1.8,21.3,1.8s17.2-1,21.3-1.8
	c2.6-0.5,4.7-2.5,5.2-5.2c0.8-3.5,1.7-9.1,1.7-15.7S83.3,43.9,82.5,40.3z M48.8,67.6V44.4l20,11.6L48.8,67.6z"/>
<g>
	<g>
		<path d="M56.5,5C84.9,5,108,28.1,108,56.5S84.9,108,56.5,108S5,84.9,5,56.5S28.1,5,56.5,5 M56.5,0C25.3,0,0,25.3,0,56.5
			S25.3,113,56.5,113S113,87.7,113,56.5S87.7,0,56.5,0L56.5,0z"/>
	</g>
</g>
</svg>
