<?xml version="1.0" encoding="utf-8"?>
<!-- Generator: Adobe Illustrator 24.3.0, SVG Export Plug-In . SVG Version: 6.00 Build 0)  -->
<svg version="1.1" id="Capa_1" xmlns="http://www.w3.org/2000/svg" xmlns:xlink="http://www.w3.org/1999/xlink" x="0px" y="0px"
	 viewBox="0 0 113 113" style="enable-background:new 0 0 113 113;" xml:space="preserve">
<style type="text/css">
	.st0{fill:none;stroke:#000000;stroke-width:6;stroke-linecap:round;stroke-miterlimit:20;}
	.st1{fill:none;stroke:#000000;stroke-width:6;stroke-miterlimit:20;}
</style>
<g>
	<g>
		<path d="M56.5,5C84.9,5,108,28.1,108,56.5S84.9,108,56.5,108S5,84.9,5,56.5S28.1,5,56.5,5 M56.5,0C25.3,0,0,25.3,0,56.5
			S25.3,113,56.5,113S113,87.7,113,56.5S87.7,0,56.5,0L56.5,0z"/>
	</g>
</g>
<g>
	<path class="st0" d="M33.2,38.5h45.6c1.1,0,2,0.9,2,2v31c0,1.1-0.9,2-2,2H33.2c-1.1,0-2-0.9-2-2v-31C31.2,39.4,32.1,38.5,33.2,38.5
		z"/>
	<path class="st1" d="M31.3,42.6c0,0,19,16.5,20.6,17.9c1.6,1.4,3.1,1.7,4.1,1.7s2.6-0.3,4.1-1.7c1.6-1.4,20.6-17.9,20.6-17.9"/>
</g>
</svg>
