<?xml version="1.0" encoding="utf-8"?>
<!-- Generator: Adobe Illustrator 24.3.0, SVG Export Plug-In . SVG Version: 6.00 Build 0)  -->
<svg version="1.1" id="Capa_1" xmlns="http://www.w3.org/2000/svg" xmlns:xlink="http://www.w3.org/1999/xlink" x="0px" y="0px"
	 viewBox="0 0 113 113" style="enable-background:new 0 0 113 113;" xml:space="preserve">
<path d="M43.9,78.6H33.7V46h10.2V78.6z M38.8,41.3c-3.3,0-6-2.7-6-6s2.7-6,6-6s6,2.7,6,6C44.6,38.6,42,41.3,38.8,41.3z M81.9,78.6
	H71.8V62.7c0-3.8-0.1-8.7-5.3-8.7c-5.3,0-6.1,4.1-6.1,8.4v16.1h-10V46H60v4.5h0.2c1.4-2.6,4.7-5.3,9.6-5.3C80.1,45.2,82,52,82,60.8
	L81.9,78.6L81.9,78.6z"/>
<g>
	<g>
		<path d="M56.5,5C84.9,5,108,28.1,108,56.5S84.9,108,56.5,108S5,84.9,5,56.5S28.1,5,56.5,5 M56.5,0C25.3,0,0,25.3,0,56.5
			S25.3,113,56.5,113S113,87.7,113,56.5S87.7,0,56.5,0L56.5,0z"/>
	</g>
</g>
</svg>
