<?xml version="1.0" encoding="utf-8"?>
<!-- Generator: Adobe Illustrator 24.3.0, SVG Export Plug-In . SVG Version: 6.00 Build 0)  -->
<svg version="1.1" id="Capa_1" xmlns="http://www.w3.org/2000/svg" xmlns:xlink="http://www.w3.org/1999/xlink" x="0px" y="0px"
	 viewBox="0 0 113 113" style="enable-background:new 0 0 113 113;" xml:space="preserve">
<path d="M84.1,39.4c-2.1,0.9-4.2,1.5-6.5,1.8c2.3-1.4,4.1-3.7,5-6.2c-2.2,1.3-4.6,2.2-7.2,2.8c-2.1-2.2-5-3.6-8.3-3.6
	c-6.2,0-11.3,5.1-11.3,11.3c0,0.9,0.1,1.8,0.3,2.6c-9.4-0.5-17.7-5.1-23.4-11.9c-1,1.7-1.5,3.7-1.5,5.7c0,3.9,2,7.4,5.1,9.4
	c-1.9-0.1-3.6-0.5-5.2-1.4c0,0.1,0,0.1,0,0.2c0,5.5,3.9,10.1,9.1,11.1c-1,0.3-2,0.4-2.9,0.4c-0.7,0-1.4-0.1-2.1-0.2
	c1.4,4.5,5.6,7.8,10.6,7.8c-3.9,3-8.7,4.8-14.1,4.8c-0.9,0-1.8-0.1-2.7-0.2c5,3.2,11,5.1,17.4,5.1c20.9,0,32.3-17.3,32.3-32.3
	c0-0.5,0-1,0-1.4C80.6,43.7,82.6,41.6,84.1,39.4z"/>
<g>
	<g>
		<path d="M56.5,5C84.9,5,108,28.1,108,56.5S84.9,108,56.5,108S5,84.9,5,56.5S28.1,5,56.5,5 M56.5,0C25.3,0,0,25.3,0,56.5
			S25.3,113,56.5,113S113,87.7,113,56.5S87.7,0,56.5,0L56.5,0z"/>
	</g>
</g>
</svg>
